<?xml version="1.0" encoding="UTF-8" standalone="no"?>
<svg
   xmlns:dc="http://purl.org/dc/elements/1.1/"
   xmlns:cc="http://creativecommons.org/ns#"
   xmlns:rdf="http://www.w3.org/1999/02/22-rdf-syntax-ns#"
   xmlns:svg="http://www.w3.org/2000/svg"
   xmlns="http://www.w3.org/2000/svg"
   id="svg33"
   version="1.1"
   width="291.85352"
   viewBox="0 0 291.85352 227.16602"
   height="227.16602"
   fill="none">
  <metadata
     id="metadata39">
    <rdf:RDF>
      <cc:Work
         rdf:about="">
        <dc:format>image/svg+xml</dc:format>
        <dc:type
           rdf:resource="http://purl.org/dc/dcmitype/StillImage" />
        <dc:title></dc:title>
      </cc:Work>
    </rdf:RDF>
  </metadata>
  <defs
     id="defs37" />
  <clipPath
     id="a">
    <path
       id="path2"
       transform="matrix(0.86601,-0.500028,-3.184e-5,1,97.002,152.599)"
       d="M 0,0 H 224.978 V 74.9928 H 0 Z" />
  </clipPath>
  <path
     style="fill:#000000"
     d="m 173.93164,0 v 11.566407 c 0,3.2081 2.03914,6.415581 6.11914,8.863281 8.159,4.8955 21.38688,4.8955 29.54688,0 4.079,-2.4477 6.11914,-5.655181 6.11914,-8.863281 V 0.00390624 c -0.855,2.21191696 -2.77191,4.31592936 -5.75391,6.03710936 -8.36,4.8263204 -21.91539,4.8263204 -30.27539,0 C 176.7035,4.3185956 174.78564,2.213676 173.93164,0 Z m -27.56055,13.753907 c -0.47137,-6.38e-4 -0.94306,0.0089 -1.41406,0.02734 0.942,-0.0352 1.88517,-0.03379 2.82617,0.0039 -0.4705,-0.01965 -0.94073,-0.03061 -1.41211,-0.03125 z m 20.84571,13.1875 c -0.42,2.7317 -2.4405,5.395528 -6.0625,7.486328 -8.192,4.7293 -21.47402,4.7293 -29.66602,0 -3.61,-2.0842 -5.62864,-4.738338 -6.05664,-7.460938 V 39.63086 c 0,3.2081 2.03914,6.415581 6.11914,8.863281 8.159,4.8954 21.38688,4.8954 29.54688,0 4.079,-2.4477 6.11914,-5.655181 6.11914,-8.863281 z m 55.21484,0.615234 v 12.085937 c 0,3.2373 2.03914,6.475313 6.11914,8.945313 8.159,4.9399 21.38688,4.9399 29.54688,0 4.079,-2.47 6.11914,-5.708013 6.11914,-8.945313 V 27.560547 c -0.765,2.3636 -2.71743,4.622072 -5.85742,6.451172 -8.303,4.8371 -21.76632,4.8371 -30.07032,0 -3.141,-1.83 -5.09342,-4.090278 -5.85742,-6.455078 z M 291.85352,39.914063 97.416016,152.1836 v -0.0117 L 0,95.923828 0.00195313,170.91797 97,226.92383 v 0.24024 c 0.05247,-0.05 0.105721,-0.0985 0.158203,-0.14844 l 0.261719,0.15039 v -0.39648 c 8.373118,-7.96211 16.896828,-15.62324 25.560548,-22.94727 v -25.40234 l 4.33008,-2.5 v -6 l 3.46484,-8 3.03125,-1.75 v -5 l 0.86719,-0.5 v -5.5 l 0.43164,-0.75 0.43359,0.25 v 5.5 l 0.86524,-0.5 v 5 l 3.03125,-1.75 3.46289,4 v 6 l 4.33008,-2.5 v 20.05664 c 5.156,-3.872 10.35289,-7.62205 15.58789,-11.24805 l 0.002,-38.96875 11.98828,-11.91992 12.25977,-2.08008 -0.002,37.25586 c 2.447,-1.477 4.90133,-2.92766 7.36133,-4.34766 2.751,-1.589 5.49256,-3.1309 8.22656,-4.6289 l 0.002,-25.1211 2.59765,-1.5 6.92774,-12.38086 0.002,-3.61914 1.73047,-3.40039 v -5.099611 l 0.43359,-0.75 0.4336,0.25 v 5.099611 l 1.73242,1.40039 v 3.61914 l 6.92578,4.38086 2.59766,-1.5 v 26.8086 c 5.234,-2.42 10.43089,-4.66996 15.58789,-6.75196 l 0.002,-46.111328 3.46484,-3.142578 v -2.994141 l 8.65821,-7.810547 8.66015,-2.189453 v 2.994141 l 3.46485,-0.857422 -0.002,51.455078 c 8.807,-2.725 17.47347,-4.94215 25.98047,-6.66015 z M 118.61914,53.390625 c -0.393,2.8699 -2.5352,5.713319 -6.4082,7.949219 -8.384,4.8403 -21.699537,5.001275 -29.740237,0.359375 -3.0802,-1.7783 -4.939444,-4.00305 -5.589844,-6.34375 v 12.210938 c 0,3.2081 2.039541,6.415581 6.119141,8.863281 8.159,4.8955 21.38787,4.8955 29.54688,0 4.07899,-2.4477 6.11914,-5.655181 6.11914,-8.863281 V 54.22461 c 0,-0.278 -0.0159,-0.556485 -0.0469,-0.833985 z m 55.3125,2.955079 v 11.363281 c 0,3.2373 2.03914,6.473359 6.11914,8.943359 8.159,4.9399 21.38688,4.9399 29.54688,0 4.079,-2.47 6.11914,-5.706059 6.11914,-8.943359 V 56.355469 c -0.814,2.2921 -2.74778,4.475506 -5.80078,6.253906 -8.33,4.8528 -21.83979,4.850141 -30.17579,-0.0059 -3.056,-1.78 -4.99259,-3.964813 -5.80859,-6.257812 z M 27.775391,81.328125 c -0.0408,0.32 -0.06055,0.640238 -0.06055,0.960938 V 95.63086 c 0,3.2081 2.03964,6.41724 6.11914,8.86524 8.1591,4.895 21.387875,4.895 29.546875,0 C 67.460459,102.0481 69.5,98.83896 69.5,95.63086 V 84.035157 c -0.7268,2.1873 -2.524803,4.251415 -5.408203,5.916015 -8.0066,4.6223 -21.346269,4.417316 -29.792969,-0.458984 -3.9832,-2.2995 -6.166937,-5.227563 -6.523437,-8.164063 z m 97.654299,2.228516 v 12.087891 c 0,3.2373 2.03914,6.473358 6.11914,8.943358 8.159,4.94 21.38687,4.94 29.54687,0 4.079,-2.46999 6.11914,-5.706058 6.11914,-8.943358 V 83.558594 c -0.765,2.3636 -2.71742,4.622072 -5.85742,6.451172 -8.303,4.8371 -21.76631,4.8371 -30.07031,0 -3.141,-1.83 -5.09342,-4.088325 -5.85742,-6.453125 z M 76.128906,113.31641 v 10.39063 c 0,3.238 2.039641,6.47531 6.119141,8.94531 8.1591,4.94 21.387873,4.94 29.546873,0 4.079,-2.47 6.11914,-5.70731 6.11914,-8.94531 v -10.38672 c -0.983,1.996 -2.82248,3.87917 -5.52148,5.45117 -8.489,4.945 -22.251836,4.945 -30.740236,0 -2.7002,-1.573 -4.541138,-3.45808 -5.523438,-5.45508 z"
     id="path9" />
</svg>
